<svg aria-hidden="true" style="position: absolute; width: 0; height: 0; overflow: hidden;" version="1.1" xmlns="http://www.w3.org/2000/svg" xmlns:xlink="http://www.w3.org/1999/xlink">
<defs>
<symbol id="socialLinkedIn" viewBox="0 0 147 32">
<path fill="#2196f3" style="fill: var(--color1, #2196f3)" d="M5.385 26.079h12.394v3.788h-17.137v-27.3h4.744v23.512zM26.591 29.867h-4.556v-20.288h4.556v20.288zM21.753 4.31c0-0.7 0.219-1.281 0.656-1.744 0.45-0.462 1.088-0.694 1.913-0.694s1.463 0.231 1.913 0.694c0.45 0.462 0.675 1.044 0.675 1.744 0 0.688-0.225 1.263-0.675 1.725-0.45 0.45-1.088 0.675-1.913 0.675s-1.462-0.225-1.913-0.675c-0.437-0.463-0.656-1.037-0.656-1.725zM36.565 9.579l0.131 2.344c1.5-1.813 3.469-2.719 5.906-2.719 4.225 0 6.375 2.419 6.45 7.256v13.406h-4.556v-13.144c0-1.287-0.281-2.238-0.844-2.85-0.55-0.625-1.456-0.938-2.719-0.938-1.838 0-3.206 0.831-4.106 2.494v14.438h-4.556v-20.288h4.294zM61.071 21.167l-2.025 2.081v6.619h-4.556v-28.8h4.556v16.613l1.425-1.781 5.606-6.319h5.475l-7.537 8.456 8.344 11.831h-5.269l-6.019-8.7zM83.87 30.242c-2.887 0-5.231-0.906-7.031-2.719-1.788-1.825-2.681-4.25-2.681-7.275v-0.563c0-2.025 0.387-3.831 1.162-5.419 0.788-1.6 1.888-2.844 3.3-3.731s2.988-1.331 4.725-1.331c2.763 0 4.894 0.881 6.394 2.644 1.513 1.762 2.269 4.256 2.269 7.481v1.837h-13.256c0.138 1.675 0.694 3 1.669 3.975 0.988 0.975 2.225 1.462 3.713 1.462 2.087 0 3.788-0.844 5.1-2.531l2.456 2.344c-0.813 1.213-1.9 2.156-3.263 2.831-1.35 0.662-2.869 0.994-4.556 0.994zM83.326 12.86c-1.25 0-2.262 0.438-3.037 1.313-0.762 0.875-1.25 2.094-1.462 3.656h8.681v-0.337c-0.1-1.525-0.506-2.675-1.219-3.45-0.713-0.787-1.7-1.181-2.963-1.181zM95.475 19.573c0-3.125 0.725-5.631 2.175-7.519 1.45-1.9 3.394-2.85 5.831-2.85 2.15 0 3.888 0.75 5.213 2.25v-10.387h4.556v28.8h-4.125l-0.225-2.1c-1.363 1.65-3.181 2.475-5.456 2.475-2.375 0-4.3-0.956-5.775-2.869-1.462-1.913-2.194-4.513-2.194-7.8zM100.032 19.967c0 2.063 0.394 3.675 1.181 4.838 0.8 1.15 1.931 1.725 3.394 1.725 1.862 0 3.225-0.831 4.087-2.494v-8.662c-0.838-1.625-2.188-2.437-4.050-2.437-1.475 0-2.613 0.588-3.413 1.762-0.8 1.162-1.2 2.919-1.2 5.269zM124.218 29.867h-4.725v-27.3h4.725v27.3zM134.605 9.579l0.131 2.344c1.5-1.813 3.469-2.719 5.906-2.719 4.225 0 6.375 2.419 6.45 7.256v13.406h-4.556v-13.144c0-1.287-0.281-2.238-0.844-2.85-0.55-0.625-1.456-0.938-2.719-0.938-1.837 0-3.206 0.831-4.106 2.494v14.438h-4.556v-20.288h4.294z"></path>
</symbol>
<symbol id="socialFacebook" viewBox="0 0 173 32">
<path fill="#2196f3" style="fill: var(--color1, #2196f3)" d="M16.373 18.298h-10.988v11.569h-4.744v-27.3h17.344v3.825h-12.6v8.119h10.988v3.788zM33.566 29.867c-0.2-0.387-0.375-1.019-0.525-1.894-1.45 1.513-3.225 2.269-5.325 2.269-2.037 0-3.7-0.581-4.988-1.744s-1.931-2.6-1.931-4.313c0-2.163 0.8-3.819 2.4-4.969 1.612-1.163 3.913-1.744 6.9-1.744h2.794v-1.331c0-1.050-0.294-1.887-0.881-2.512-0.588-0.637-1.481-0.956-2.681-0.956-1.037 0-1.888 0.262-2.55 0.787-0.663 0.512-0.994 1.169-0.994 1.969h-4.556c0-1.113 0.369-2.15 1.106-3.112 0.738-0.975 1.737-1.738 3-2.287 1.275-0.55 2.694-0.825 4.256-0.825 2.375 0 4.269 0.6 5.681 1.8 1.412 1.188 2.138 2.862 2.175 5.025v9.15c0 1.825 0.256 3.281 0.769 4.369v0.319h-4.65zM28.56 26.585c0.9 0 1.744-0.219 2.531-0.656 0.8-0.438 1.4-1.025 1.8-1.763v-3.825h-2.456c-1.687 0-2.956 0.294-3.806 0.881s-1.275 1.419-1.275 2.494c0 0.875 0.288 1.575 0.863 2.1 0.588 0.512 1.369 0.769 2.344 0.769zM51.321 26.604c1.138 0 2.081-0.331 2.831-0.994s1.15-1.481 1.2-2.456h4.294c-0.050 1.262-0.444 2.444-1.181 3.544-0.737 1.088-1.737 1.95-3 2.588s-2.625 0.956-4.087 0.956c-2.838 0-5.088-0.919-6.75-2.756s-2.494-4.375-2.494-7.613v-0.469c0-3.087 0.825-5.556 2.475-7.406 1.65-1.863 3.9-2.794 6.75-2.794 2.413 0 4.375 0.706 5.888 2.119 1.525 1.4 2.325 3.244 2.4 5.531h-4.294c-0.050-1.162-0.45-2.119-1.2-2.869-0.737-0.75-1.681-1.125-2.831-1.125-1.475 0-2.612 0.537-3.412 1.613-0.8 1.063-1.206 2.681-1.219 4.856v0.731c0 2.2 0.394 3.844 1.181 4.931 0.8 1.075 1.95 1.613 3.45 1.613zM72.789 30.242c-2.887 0-5.231-0.906-7.031-2.719-1.788-1.825-2.681-4.25-2.681-7.275v-0.563c0-2.025 0.387-3.831 1.162-5.419 0.788-1.6 1.888-2.844 3.3-3.731s2.988-1.331 4.725-1.331c2.763 0 4.894 0.881 6.394 2.644 1.513 1.762 2.269 4.256 2.269 7.481v1.837h-13.256c0.138 1.675 0.694 3 1.669 3.975 0.987 0.975 2.225 1.462 3.712 1.462 2.087 0 3.788-0.844 5.1-2.531l2.456 2.344c-0.813 1.213-1.9 2.156-3.263 2.831-1.35 0.662-2.869 0.994-4.556 0.994zM72.246 12.86c-1.25 0-2.263 0.438-3.038 1.313-0.762 0.875-1.25 2.094-1.462 3.656h8.681v-0.337c-0.1-1.525-0.506-2.675-1.219-3.45-0.713-0.787-1.7-1.181-2.962-1.181zM103.051 19.929c0 3.15-0.706 5.656-2.119 7.519-1.4 1.863-3.331 2.794-5.794 2.794-2.375 0-4.225-0.856-5.55-2.569l-0.225 2.194h-4.125v-28.8h4.556v10.463c1.312-1.55 3.081-2.325 5.306-2.325 2.475 0 4.419 0.919 5.831 2.756s2.119 4.406 2.119 7.706v0.262zM98.495 19.535c0-2.2-0.387-3.85-1.162-4.95s-1.9-1.65-3.375-1.65c-1.975 0-3.362 0.863-4.162 2.588v8.363c0.812 1.763 2.212 2.644 4.2 2.644 1.425 0 2.525-0.531 3.3-1.594s1.175-2.669 1.2-4.819v-0.581zM106.8 19.535c0-1.988 0.394-3.775 1.181-5.363 0.787-1.6 1.894-2.825 3.319-3.675 1.425-0.863 3.062-1.294 4.912-1.294 2.737 0 4.956 0.881 6.656 2.644 1.713 1.762 2.637 4.1 2.775 7.012l0.019 1.069c0 2-0.387 3.788-1.162 5.363-0.763 1.575-1.863 2.794-3.3 3.656-1.425 0.863-3.075 1.294-4.95 1.294-2.862 0-5.156-0.95-6.881-2.85-1.712-1.912-2.569-4.456-2.569-7.631v-0.225zM111.357 19.929c0 2.087 0.431 3.725 1.294 4.912 0.862 1.175 2.063 1.763 3.6 1.763s2.731-0.6 3.581-1.8c0.862-1.2 1.294-2.956 1.294-5.269 0-2.050-0.444-3.675-1.331-4.875-0.875-1.2-2.069-1.8-3.581-1.8-1.488 0-2.669 0.594-3.544 1.781-0.875 1.175-1.313 2.938-1.313 5.287zM129.431 19.535c0-1.988 0.394-3.775 1.181-5.363 0.787-1.6 1.894-2.825 3.319-3.675 1.425-0.863 3.063-1.294 4.913-1.294 2.738 0 4.956 0.881 6.656 2.644 1.712 1.762 2.637 4.1 2.775 7.012l0.019 1.069c0 2-0.387 3.788-1.162 5.363-0.762 1.575-1.862 2.794-3.3 3.656-1.425 0.863-3.075 1.294-4.95 1.294-2.863 0-5.156-0.95-6.881-2.85-1.712-1.912-2.569-4.456-2.569-7.631v-0.225zM133.987 19.929c0 2.087 0.431 3.725 1.294 4.912 0.863 1.175 2.063 1.763 3.6 1.763s2.731-0.6 3.581-1.8c0.863-1.2 1.294-2.956 1.294-5.269 0-2.050-0.444-3.675-1.331-4.875-0.875-1.2-2.069-1.8-3.581-1.8-1.488 0-2.669 0.594-3.544 1.781-0.875 1.175-1.312 2.938-1.312 5.287zM159.505 21.167l-2.025 2.081v6.619h-4.556v-28.8h4.556v16.613l1.425-1.781 5.606-6.319h5.475l-7.537 8.456 8.344 11.831h-5.269l-6.019-8.7z"></path>
</symbol>
<symbol id="socialTwitter" viewBox="0 0 126 32">
<path fill="#2196f3" style="fill: var(--color1, #2196f3)" d="M22.5 6.392h-8.513v23.475h-4.706v-23.475h-8.438v-3.825h21.656v3.825zM43.349 23.585l3.225-14.006h4.444l-5.531 20.288h-3.75l-4.35-13.931-4.275 13.931h-3.75l-5.55-20.288h4.444l3.281 13.856 4.162-13.856h3.431l4.219 14.006zM59.68 29.867h-4.556v-20.288h4.556v20.288zM54.842 4.31c0-0.7 0.219-1.281 0.656-1.744 0.45-0.462 1.088-0.694 1.913-0.694s1.463 0.231 1.913 0.694c0.45 0.462 0.675 1.044 0.675 1.744 0 0.688-0.225 1.263-0.675 1.725-0.45 0.45-1.088 0.675-1.913 0.675s-1.462-0.225-1.913-0.675c-0.438-0.463-0.656-1.037-0.656-1.725zM71.135 4.648v4.931h3.581v3.375h-3.581v11.325c0 0.775 0.15 1.337 0.45 1.687 0.313 0.337 0.862 0.506 1.65 0.506 0.525 0 1.056-0.063 1.594-0.188v3.525c-1.037 0.288-2.038 0.431-3 0.431-3.5 0-5.25-1.931-5.25-5.794v-11.494h-3.337v-3.375h3.337v-4.931h4.556zM84.691 4.648v4.931h3.581v3.375h-3.581v11.325c0 0.775 0.15 1.337 0.45 1.687 0.313 0.337 0.862 0.506 1.65 0.506 0.525 0 1.056-0.063 1.594-0.188v3.525c-1.037 0.288-2.037 0.431-3 0.431-3.5 0-5.25-1.931-5.25-5.794v-11.494h-3.337v-3.375h3.337v-4.931h4.556zM101.471 30.242c-2.887 0-5.231-0.906-7.031-2.719-1.787-1.825-2.681-4.25-2.681-7.275v-0.563c0-2.025 0.388-3.831 1.162-5.419 0.788-1.6 1.888-2.844 3.3-3.731s2.988-1.331 4.725-1.331c2.762 0 4.894 0.881 6.394 2.644 1.513 1.762 2.269 4.256 2.269 7.481v1.837h-13.256c0.138 1.675 0.694 3 1.669 3.975 0.988 0.975 2.225 1.462 3.712 1.462 2.087 0 3.788-0.844 5.1-2.531l2.456 2.344c-0.813 1.213-1.9 2.156-3.263 2.831-1.35 0.662-2.869 0.994-4.556 0.994zM100.928 12.86c-1.25 0-2.263 0.438-3.038 1.313-0.762 0.875-1.25 2.094-1.462 3.656h8.681v-0.337c-0.1-1.525-0.506-2.675-1.219-3.45-0.712-0.787-1.7-1.181-2.962-1.181zM124.552 13.742c-0.6-0.1-1.219-0.15-1.856-0.15-2.087 0-3.494 0.8-4.219 2.4v13.875h-4.556v-20.288h4.35l0.112 2.269c1.1-1.762 2.625-2.644 4.575-2.644 0.65 0 1.187 0.088 1.612 0.262l-0.019 4.275z"></path>
</symbol>
<symbol id="socialInstagram" viewBox="0 0 156 32">
<path fill="#2196f3" style="fill: var(--color1, #2196f3)" d="M4.983 24.471h-4.169v-24.088h4.169v24.088zM14.148 6.57l0.116 2.068c1.324-1.599 3.061-2.399 5.211-2.399 3.728 0 5.625 2.134 5.691 6.403v11.829h-4.020v-11.597c0-1.136-0.248-1.974-0.744-2.515-0.485-0.551-1.285-0.827-2.399-0.827-1.621 0-2.829 0.733-3.623 2.2v12.739h-4.020v-17.901h3.789zM39.989 19.607c0-0.717-0.298-1.263-0.893-1.638-0.584-0.375-1.561-0.706-2.928-0.993s-2.509-0.651-3.425-1.092c-2.007-0.971-3.011-2.377-3.011-4.219 0-1.544 0.651-2.835 1.952-3.871s2.956-1.555 4.963-1.555c2.14 0 3.866 0.529 5.178 1.588 1.323 1.059 1.985 2.432 1.985 4.12h-4.020c0-0.772-0.287-1.412-0.86-1.919-0.574-0.518-1.335-0.778-2.283-0.778-0.882 0-1.605 0.204-2.167 0.612-0.552 0.408-0.827 0.954-0.827 1.638 0 0.618 0.259 1.097 0.778 1.439s1.566 0.689 3.143 1.042c1.577 0.342 2.813 0.756 3.706 1.241 0.904 0.474 1.572 1.048 2.002 1.721 0.441 0.673 0.662 1.489 0.662 2.449 0 1.61-0.667 2.917-2.002 3.921-1.335 0.993-3.083 1.489-5.244 1.489-1.467 0-2.774-0.265-3.921-0.794s-2.040-1.257-2.68-2.184c-0.64-0.927-0.96-1.925-0.96-2.995h3.904c0.055 0.949 0.414 1.682 1.075 2.2 0.662 0.507 1.539 0.761 2.631 0.761 1.059 0 1.864-0.199 2.415-0.596 0.551-0.408 0.827-0.938 0.827-1.588zM53.174 2.219v4.351h3.16v2.978h-3.16v9.993c0 0.684 0.133 1.18 0.397 1.489 0.276 0.298 0.761 0.447 1.456 0.447 0.463 0 0.932-0.055 1.406-0.165v3.11c-0.915 0.254-1.798 0.381-2.647 0.381-3.088 0-4.632-1.704-4.632-5.112v-10.142h-2.945v-2.978h2.945v-4.351h4.020zM70.793 24.471c-0.176-0.342-0.331-0.899-0.463-1.671-1.279 1.335-2.846 2.002-4.699 2.002-1.798 0-3.265-0.513-4.401-1.539s-1.704-2.294-1.704-3.805c0-1.908 0.706-3.369 2.118-4.384 1.423-1.026 3.452-1.539 6.088-1.539h2.465v-1.175c0-0.926-0.259-1.665-0.777-2.217-0.518-0.563-1.307-0.844-2.366-0.844-0.915 0-1.665 0.232-2.25 0.695-0.584 0.452-0.877 1.031-0.877 1.737h-4.020c0-0.982 0.325-1.897 0.976-2.746 0.651-0.86 1.533-1.533 2.647-2.018 1.125-0.485 2.377-0.728 3.756-0.728 2.095 0 3.766 0.529 5.013 1.588 1.246 1.048 1.886 2.526 1.919 4.434v8.073c0 1.61 0.226 2.895 0.678 3.855v0.281h-4.103zM66.376 21.575c0.794 0 1.538-0.193 2.233-0.579 0.706-0.386 1.235-0.904 1.588-1.555v-3.375h-2.167c-1.489 0-2.609 0.259-3.359 0.778s-1.125 1.252-1.125 2.2c0 0.772 0.254 1.39 0.761 1.853 0.518 0.452 1.208 0.678 2.068 0.678zM78.403 15.388c0-2.779 0.651-4.996 1.952-6.651 1.312-1.665 3.050-2.498 5.211-2.498 2.040 0 3.645 0.711 4.814 2.134l0.182-1.803h3.623v17.355c0 2.349-0.733 4.202-2.2 5.559-1.456 1.357-3.425 2.035-5.906 2.035-1.313 0-2.597-0.276-3.855-0.827-1.246-0.54-2.195-1.252-2.846-2.134l1.903-2.415c1.235 1.467 2.757 2.2 4.566 2.2 1.335 0 2.388-0.364 3.16-1.092 0.772-0.717 1.158-1.776 1.158-3.176v-1.208c-1.158 1.29-2.702 1.936-4.632 1.936-2.095 0-3.811-0.833-5.145-2.498-1.323-1.665-1.985-3.971-1.985-6.915zM82.407 15.735c0 1.798 0.364 3.215 1.092 4.252 0.739 1.026 1.759 1.538 3.061 1.538 1.621 0 2.824-0.695 3.607-2.085v-7.875c-0.761-1.357-1.952-2.035-3.574-2.035-1.323 0-2.355 0.524-3.094 1.572-0.728 1.048-1.092 2.592-1.092 4.632zM108.38 10.243c-0.529-0.088-1.075-0.132-1.638-0.132-1.842 0-3.083 0.706-3.723 2.118v12.243h-4.020v-17.901h3.838l0.099 2.002c0.971-1.555 2.316-2.333 4.037-2.333 0.574 0 1.048 0.077 1.423 0.232l-0.017 3.772zM121.797 24.471c-0.177-0.342-0.331-0.899-0.463-1.671-1.279 1.335-2.846 2.002-4.699 2.002-1.798 0-3.265-0.513-4.401-1.539s-1.704-2.294-1.704-3.805c0-1.908 0.706-3.369 2.118-4.384 1.423-1.026 3.452-1.539 6.088-1.539h2.465v-1.175c0-0.926-0.259-1.665-0.778-2.217-0.518-0.563-1.307-0.844-2.366-0.844-0.915 0-1.665 0.232-2.25 0.695-0.584 0.452-0.877 1.031-0.877 1.737h-4.020c0-0.982 0.325-1.897 0.976-2.746 0.651-0.86 1.533-1.533 2.647-2.018 1.125-0.485 2.377-0.728 3.755-0.728 2.096 0 3.767 0.529 5.013 1.588 1.246 1.048 1.886 2.526 1.919 4.434v8.073c0 1.61 0.226 2.895 0.678 3.855v0.281h-4.103zM117.38 21.575c0.794 0 1.539-0.193 2.233-0.579 0.706-0.386 1.235-0.904 1.588-1.555v-3.375h-2.167c-1.489 0-2.608 0.259-3.359 0.778s-1.125 1.252-1.125 2.2c0 0.772 0.254 1.39 0.761 1.853 0.518 0.452 1.208 0.678 2.068 0.678zM133.89 6.57l0.116 1.87c1.257-1.467 2.978-2.2 5.162-2.2 2.393 0 4.031 0.915 4.914 2.746 1.301-1.831 3.132-2.746 5.493-2.746 1.974 0 3.441 0.546 4.401 1.638 0.971 1.092 1.467 2.702 1.489 4.831v11.763h-4.020v-11.647c0-1.136-0.248-1.969-0.744-2.498s-1.318-0.794-2.465-0.794c-0.915 0-1.665 0.248-2.25 0.744-0.574 0.485-0.976 1.125-1.208 1.919l0.017 12.276h-4.020v-11.779c-0.055-2.107-1.131-3.16-3.226-3.16-1.61 0-2.752 0.656-3.425 1.969v12.971h-4.020v-17.901h3.789z"></path>
</symbol>
</defs>
</svg>
